# xmcd
#
# Track frame offsets: 
#        150
#        23504
#        39576
#        60204
#        76054
#        103959
#        117976
#        136949
#        148289
#        164186
#        186376
#        208816
#        259391
#
# Disc length: 3902 seconds
#
# Revision: 0
# Processed by: cddbd v1.5.2PL0 Copyright (c) Steve Scherf et al.
# Submitted via: ExactAudioCopy v1.3
#
DISCID=c10f3c0d
DTITLE=Paul Lamb and The King Snakes - Live At The 100 Club
DYEAR=2002
DGENRE=Harmonica Blues, Electric Blues
TTITLE0=Mad About My Baby
TTITLE1=No Glue In The World
TTITLE2=Livin' My Life Without Her
TTITLE3=More Than Alright
TTITLE4=Whitehill's Walk (Instrumental)
TTITLE5=To Keep A Woman
TTITLE6=The Pillow
TTITLE7=I'm Going Down
TTITLE8=Hootin' And Screamin'
TTITLE9=She's Crazy
TTITLE10=The Good Stuff
TTITLE11=Open Up
TTITLE12=Makes You Feel Good
EXTD=
EXTT0=
EXTT1=
EXTT2=
EXTT3=
EXTT4=
EXTT5=
EXTT6=
EXTT7=
EXTT8=
EXTT9=
EXTT10=
EXTT11=
EXTT12=
PLAYORDER=
